# xmcd
# 
# Track frame offsets:
#     150
#     22400
#     46287
#     67747
#     91160
#     111652
#     136875
#     153157
# 
# Disc length: 2363
# 
# Revision: 1
# Processed by: cddbd v1.5.2PL0 Copyright (c) Steve Scherf et al.
# Submitted via: BonkEnc v1.0.6
# 
DISCID=65093908
DTITLE=Zoot Sims - Zoot
DYEAR=1956
DGENRE=Jazz
TTITLE0=9:20 Special
TTITLE1=The Man I Love
TTITLE2=55th And State
TTITLE3=Blue Room
TTITLE4=Gus's Blues
TTITLE5=That Old Feeling
TTITLE6=Bohemia After Dark
TTITLE7=Woudy'n You
EXTD=
EXTT0=
EXTT1=
EXTT2=
EXTT3=
EXTT4=
EXTT5=
EXTT6=
EXTT7=
PLAYORDER=
